<svg width="24" height="24" viewBox="0 0 24 24" fill="none" xmlns="http://www.w3.org/2000/svg">
<path d="M12 0C5.37253 0 0 5.37253 0 12C0 18.6272 5.37253 24 12 24C18.6272 24 24 18.6272 24 12C24 5.37253 18.6272 0 12 0ZM16.2427 16.2427C15.8277 16.6576 15.1491 16.6576 14.7341 16.2427L12 13.5085L9.26587 16.2427C8.85093 16.6576 8.17227 16.6576 7.75733 16.2427C7.3424 15.8277 7.3424 15.1491 7.75733 14.7341L10.4915 12L7.75733 9.26587C7.3424 8.85093 7.3424 8.17227 7.75733 7.75733C8.17227 7.3424 8.85093 7.3424 9.26587 7.75733L12 10.4915L14.7341 7.75733C15.1491 7.3424 15.8277 7.3424 16.2427 7.75733C16.6576 8.17227 16.6576 8.85093 16.2427 9.26587L13.5085 12L16.2427 14.7341C16.6576 15.1491 16.6576 15.8277 16.2427 16.2427Z" fill="#FF4607"/>
</svg>
